<?xml version="1.0" encoding="iso-8859-1"?>
<!-- Uploaded to: SVG Repo, www.svgrepo.com, Generator: SVG Repo Mixer Tools -->
<svg height="800px" width="800px" version="1.1" id="Layer_1" xmlns="http://www.w3.org/2000/svg" xmlns:xlink="http://www.w3.org/1999/xlink" 
	 viewBox="0 0 512 512" xml:space="preserve">
<path style="fill:#E6563A;" d="M441.145,255.776v218.675c0,20.708-16.841,37.549-37.549,37.549H108.404
	c-20.708,0-37.549-16.841-37.549-37.549V255.776c0-11.529,9.332-20.861,20.861-20.861h328.569
	C431.814,234.915,441.145,244.247,441.145,255.776z"/>
<path style="fill:#D9472B;" d="M441.145,255.776v218.675c0,20.708-16.841,37.549-37.549,37.549H258.837V234.915h161.448
	C431.814,234.915,441.145,244.247,441.145,255.776z"/>
<path style="fill:#FFC033;" d="M385.934,33.846c-8.261-15.187-21.959-26.257-38.551-31.166c-16.591-4.895-34.114-3.046-49.301,5.229
	c-16.424,8.928-31.068,31.931-39.246,46.797c-8.191-14.867-22.822-37.855-39.232-46.77c-31.374-17.078-70.787-5.438-87.851,25.937
	c-8.275,15.2-10.124,32.71-5.229,49.301c4.895,16.605,15.965,30.29,31.166,38.564c2.462,1.335,5.507,3.073,9.026,5.076
	c29.052,16.577,55.239,30.359,76.656,30.359c4.005,0,7.857-0.487,11.529-1.53c1.363-0.389,2.67-0.862,3.936-1.391
	c0.014,0,0.014-0.014,0.028-0.014c1.266,0.515,2.559,1.001,3.922,1.377c3.671,1.057,7.51,1.53,11.529,1.53
	c21.417,0,47.604-13.782,76.656-30.359c3.518-2.003,6.564-3.741,9.026-5.076c15.2-8.275,26.257-21.959,31.166-38.551
	C396.059,66.555,394.209,49.046,385.934,33.846z M221.316,108.513c-11.793-5.313-24.059-12.308-33.933-17.94
	c-3.713-2.114-6.926-3.95-9.749-5.479c-5.41-2.948-9.346-7.83-11.098-13.726c-1.738-5.911-1.085-12.141,1.864-17.551
	s7.816-9.346,13.726-11.098c2.156-0.64,4.367-0.946,6.564-0.946c3.797,0,7.552,0.946,10.973,2.809
	c3.588,2.003,14.755,14.533,25.52,35.686c7.955,15.618,11.39,27.355,12.503,34.281C234.138,113.659,228.867,111.907,221.316,108.513
	z M351.153,71.34c-1.752,5.911-5.688,10.778-11.098,13.726c-2.823,1.53-6.036,3.366-9.749,5.479
	c-9.874,5.632-22.14,12.628-33.933,17.94c-7.552,3.393-12.822,5.146-16.369,6.036c1.099-6.912,4.548-18.663,12.503-34.281
	c10.764-21.139,21.932-33.683,25.506-35.686c3.435-1.864,7.19-2.809,10.987-2.809c2.197,0,4.409,0.32,6.564,0.946
	c5.911,1.752,10.778,5.688,13.726,11.098C352.237,59.199,352.891,65.429,351.153,71.34z"/>
<path style="fill:#F9A926;" d="M385.934,33.846c-8.261-15.187-21.959-26.257-38.551-31.166c-16.591-4.895-34.114-3.046-49.301,5.229
	c-16.424,8.928-31.068,31.931-39.246,46.797v99.547c0.014,0,0.014-0.014,0.028-0.014c1.266,0.515,2.559,1.001,3.922,1.377
	c3.671,1.057,7.51,1.53,11.529,1.53c21.417,0,47.604-13.782,76.656-30.359c3.518-2.003,6.564-3.741,9.026-5.076
	c15.2-8.275,26.257-21.959,31.166-38.551C396.059,66.555,394.209,49.046,385.934,33.846z M351.153,71.34
	c-1.752,5.911-5.688,10.778-11.098,13.726c-2.823,1.53-6.036,3.366-9.749,5.479c-9.874,5.632-22.14,12.628-33.933,17.94
	c-7.552,3.393-12.822,5.146-16.369,6.036c1.099-6.912,4.548-18.663,12.503-34.281c10.764-21.139,21.932-33.683,25.506-35.686
	c3.435-1.864,7.19-2.809,10.987-2.809c2.197,0,4.409,0.32,6.564,0.946c5.911,1.752,10.778,5.688,13.726,11.098
	C352.237,59.199,352.891,65.429,351.153,71.34z"/>
<path style="fill:#FFC033;" d="M242.218,261.283V512h-41.721V261.283c0-11.529,9.332-20.861,20.861-20.861
	C232.873,240.422,242.218,249.754,242.218,261.283z"/>
<path style="fill:#F9A926;" d="M316.983,258.529V512h-41.721V258.529c0-11.529,9.332-20.861,20.861-20.861
	C307.637,237.669,316.983,247,316.983,258.529z"/>
<path style="fill:#F37B2A;" d="M458.613,153.391v85.876c0,20.471-16.661,37.132-37.132,37.132H90.519
	c-20.471,0-37.132-16.661-37.132-37.132v-85.876c0-20.471,16.661-37.132,37.132-37.132h330.961
	C441.952,116.26,458.613,132.92,458.613,153.391z"/>
<path style="fill:#E56722;" d="M458.613,153.391v85.876c0,20.471-16.661,37.132-37.132,37.132H258.837V116.26h162.644
	C441.952,116.26,458.613,132.92,458.613,153.391z"/>
</svg>